<svg xmlns="http://www.w3.org/2000/svg" viewBox="0 0 32 31.6452"><path d="M10.52.7117A4.7456,4.7456,0,0,1,15.96,4.61l.0842-.0534c1.01-5.2688,8.5664-5.04,9.3775-.0044a1.58,1.58,0,0,1,.3936.0829c3.1321.8012,4.2463,3.6123,2.6982,6.3547a4.97,4.97,0,0,1,1.7057,7.9256l-.0355.075.0462.0626a3.3867,3.3867,0,0,1-.2381,4.4764c-.2767.2835-1.1006.6759-1.245.924-.0837.1435-.0375,1.1963-.1439,1.57-.5053,1.78-1.7986,2.4932-3.5309,2.7162a.7579.7579,0,0,1-.4088.0159c-1.7794,3.92-6.3487,3.042-8.3646-.264-.1124-.1842-.1727-.4211-.388-.5284.0064-.0207.0116-.0419.0163-.0634-.0047.0211-.01.0423-.0163.0634-1.2119,3.9241-6.8544,4.6906-8.5883.7517-.1117.1392-.2469.04-.3869.0252a3.7409,3.7409,0,0,1-3.5308-2.7162c-.1069-.3653-.0583-1.4229-.144-1.57-.1464-.2513-.9683-.6369-1.245-.924a3.374,3.374,0,0,1-.2465-4.42l.0451-.0554-.0291-.0734A9.9006,9.9006,0,0,1,.6,16.5867C.02,14.11,1.4281,12.1,3.558,10.953A4.001,4.001,0,0,1,4.4421,5.37a8.298,8.298,0,0,1,1.67-.7916c.1552-.0726.3039-.2524.4957-.1531A4.8518,4.8518,0,0,1,10.5185.7124Z" transform="translate(0 -0.1774)" style="fill:#c3e9f5"/><path d="M19.884,7.4564a1.7268,1.7268,0,0,1,1.8253,1.3407l.0347.0662-.0359.0682A1.7322,1.7322,0,0,1,19.92,10.26a1.4234,1.4234,0,0,1-.0367-2.8031Z" transform="translate(0 -0.1774)" style="fill:#faab89"/><path d="M19.2735,23.1045a1.6488,1.6488,0,0,1,1.9808,1.1644l.0438.0606-.0279.0718A1.6847,1.6847,0,0,1,19.6168,25.87a1.4229,1.4229,0,0,1-.3429-2.766Z" transform="translate(0 -0.1774)" style="fill:#faab89"/><path d="M12.0323,22.9a1.4137,1.4137,0,0,1,.6548,2.75,1.7135,1.7135,0,0,1-1.91-1.4332l-.0319-.07.05-.0654A2.2492,2.2492,0,0,1,12.0327,22.9Z" transform="translate(0 -0.1774)" style="fill:#faab89"/><path d="M7.9678,12.2462A1.7154,1.7154,0,0,1,9.75,13.6244l.0371.0662-.0427.0563A2.6024,2.6024,0,0,1,8.6083,14.824a1.3293,1.3293,0,1,1-.64-2.5778Z" transform="translate(0 -0.1774)" style="fill:#f8a9c8"/><path d="M23.4532,12.2722c-.0227.0067-.0447.0187-.0674.0271.1551.0913.0427.72.0674.7481.0578.0658,1.519.0411.6066,1.0113l.9435.0339a1.3844,1.3844,0,0,1-2.09.5125,9.4936,9.4936,0,0,1-.7278-.9627c-.0434-.2987.8259-1.2067,1.2-1.3427.0227-.0084.0447-.02.0674-.0271Z" transform="translate(0 -0.1774)" style="fill:#f8a9c8"/><path d="M25.0037,14.0922l-.9435-.0339c.912-.97-.5488-.9451-.6066-1.0113-.0247-.0283.0877-.6568-.0674-.7481.0227-.0084.0447-.02.0674-.0271a1.34,1.34,0,0,1,1.55,1.82Z" transform="translate(0 -0.1774)" style="fill:#f28eb7"/><path d="M11.3452,7.4667c2.437-.8458,2.4465,3.5233.0063,2.6887a2.657,2.657,0,0,1-1.1736-1.3112c-.0387-.3278.784-1.2447,1.1673-1.3775Z" transform="translate(0 -0.1774)" style="fill:#faab89"/><path d="M11.9434,10.734a2.3064,2.3064,0,0,1-.7445-.1322,2.979,2.979,0,0,1-1.49-1.7027c-.0129-.11-.0525-.4455.5376-1.1259a2.7634,2.7634,0,0,1,.9438-.7522,1.713,1.713,0,0,1,2.0653.5229,2.2364,2.2364,0,0,1,.0056,2.5258A1.58,1.58,0,0,1,11.9434,10.734ZM10.6591,8.816a2.6215,2.6215,0,0,0,.8453.8931A.8.8,0,0,0,12.5,9.5123a1.3009,1.3009,0,0,0-.0031-1.4077.8007.8007,0,0,0-.997-.1923A2.6642,2.6642,0,0,0,10.6591,8.816Zm-.014.0409Zm-.0013-.0834Zm.7013-1.3068h0Z" transform="translate(0 -0.1774)" style="fill:#272424"/><path d="M11.3,31.7869a4.8611,4.8611,0,0,1-2.4114-.623,4.77,4.77,0,0,1-1.9974-2.2588A3.0992,3.0992,0,0,1,7.29,26.0185a4.7844,4.7844,0,0,1,3.43-2.3427.4718.4718,0,1,1,.05.9422,3.8635,3.8635,0,0,0-2.6766,1.895,2.29,2.29,0,0,0-.3382,2.012,3.7705,3.7705,0,0,0,3.7954,2.3112,4.2924,4.2924,0,0,0,3.906-2.9981l.1157-23.2837a.4818.4818,0,0,1,.0084-.0864,5.1185,5.1185,0,0,1,1.9631-3.2242,5.5119,5.5119,0,0,1,6.5041.0734,4.895,4.895,0,0,1,1.84,3.16,3.7835,3.7835,0,0,1-.8555,2.8442,5.0343,5.0343,0,0,1-3.2339,2.01.4718.4718,0,1,1-.108-.9373,4.1274,4.1274,0,0,0,2.59-1.6425,2.8625,2.8625,0,0,0,.676-2.1244,4.1115,4.1115,0,0,0-4.1474-3.465,4.1588,4.1588,0,0,0-4.2928,3.4413L16.4,27.9023a.4735.4735,0,0,1-.0117.102c-.0056.0248-.0135.0581-.0248.0954a5.1315,5.1315,0,0,1-1.8788,2.6438,5.452,5.452,0,0,1-2.88,1.0346Q11.4521,31.787,11.3,31.7869Z" transform="translate(0 -0.1774)" style="fill:#272424"/><path d="M1.8158,19.5262a.4716.4716,0,0,1-.4386-.2978l-.02-.0506c-.1253-.2386-.262-.4642-.3943-.6826a5.9973,5.9973,0,0,1-.8207-1.8013,4.965,4.965,0,0,1,.5124-3.6573A6.4867,6.4867,0,0,1,2.911,10.7824,4.6025,4.6025,0,0,1,2.38,7.9142,4.5084,4.5084,0,0,1,4.1547,4.9967a4.6859,4.6859,0,0,1,1.2322-.6282c.1854-.072.3606-.14.5268-.2178l.0211-.0092.0622-.0256a.4717.4717,0,0,1,.3581.8729L6.3033,5.01c-.1919.0893-.3867.1649-.5752.238a3.9192,3.9192,0,0,0-.9955.4944,3.5489,3.5489,0,0,0-.7779,4.9522.4717.4717,0,0,1-.1714.6732c-2.18,1.1736-3.1973,3.0842-2.7226,5.1108A5.0963,5.0963,0,0,0,1.77,18.0062c.144.2377.2929.4834.4352.757a.4437.4437,0,0,1,.02.0438l.0291.0734a.4719.4719,0,0,1-.4384.6458Z" transform="translate(0 -0.1774)" style="fill:#272424"/><path d="M10.1789,9.3164a.4645.4645,0,0,1-.0511-.0028A4.8351,4.8351,0,0,1,6.95,7.2822a3.7776,3.7776,0,0,1-.802-2.9533A5.3278,5.3278,0,0,1,10.4444.2464a5.17,5.17,0,0,1,3.8741.909A5.2285,5.2285,0,0,1,16.4248,4.53a3.2267,3.2267,0,0,1,.0421.4454.4717.4717,0,0,1-.9429.0327,2.32,2.32,0,0,0-.0288-.3167,4.2988,4.2988,0,0,0-4.8994-3.5138A4.3663,4.3663,0,0,0,7.0715,4.5206a2.901,2.901,0,0,0,.6408,2.2061,3.93,3.93,0,0,0,2.5165,1.6488.4718.4718,0,0,1-.05.9409Z" transform="translate(0 -0.1774)" style="fill:#272424"/><path d="M30.1836,19.4625a.472.472,0,0,1-.426-.6739l.0355-.075a.4764.4764,0,0,1,.0646-.1008,4.6162,4.6162,0,0,0,1.1144-3.9095A4.82,4.82,0,0,0,28.2989,11.41a.4717.4717,0,0,1-.1959-.6519,3.9478,3.9478,0,0,0,.37-3.5187,3.9158,3.9158,0,0,0-2.7744-2.147.4718.4718,0,0,1,.2338-.9141,4.8326,4.8326,0,0,1,3.4084,2.6908A4.7308,4.7308,0,0,1,29.1433,10.8a5.7251,5.7251,0,0,1,2.7535,3.7151A5.5276,5.5276,0,0,1,30.62,19.1711l-.01.0215A.4718.4718,0,0,1,30.1836,19.4625Z" transform="translate(0 -0.1774)" style="fill:#272424"/><path d="M9.7874,14.1628a.4718.4718,0,0,1-.0018-.9435l12.3988-.05h.0019a.4718.4718,0,0,1,.0018.9436l-12.3987.0494Z" transform="translate(0 -0.1774)" style="fill:#272424"/><path d="M19.6985,26.3456q-.0585,0-.1169-.0042a1.8947,1.8947,0,0,1-.4565-3.6845,1.9582,1.9582,0,0,1,1.5781.2008,2.1008,2.1008,0,0,1,.9848,1.2039.485.485,0,0,1,.079.22.47.47,0,0,1,.001.0863.5056.5056,0,0,1-.0373.157A2.1784,2.1784,0,0,1,19.6985,26.3456Zm-.0278-2.8314a.7933.7933,0,0,0-.25.0386A.9511.9511,0,0,0,19.65,25.4a1.2157,1.2157,0,0,0,1.1465-1.0135l-.0033-.0138-.0011-.0054a1.1339,1.1339,0,0,0-.5588-.6916A1.1471,1.1471,0,0,0,19.6707,23.5142Zm1.2812,1.1293h0Z" transform="translate(0 -0.1774)" style="fill:#272424"/><path d="M20.0977,10.7442a1.6143,1.6143,0,0,1-.2494-.019,1.8419,1.8419,0,0,1-1.5934-1.8467A1.8413,1.8413,0,0,1,19.8,6.9918a2.0041,2.0041,0,0,1,1.5088.4,2.1256,2.1256,0,0,1,.8519,1.244.5177.5177,0,0,1,.04.104.4737.4737,0,0,1,.0156.1.4884.4884,0,0,1-.06.259,2.1706,2.1706,0,0,1-.8085,1.1928A2.0821,2.0821,0,0,1,20.0977,10.7442Zm-.01-2.8344a.6709.6709,0,0,0-.1192.01.9516.9516,0,0,0,.0249,1.8727A1.2632,1.2632,0,0,0,21.2418,8.86l-.0005-.004a1.1507,1.1507,0,0,0-.4879-.7012A1.1789,1.1789,0,0,0,20.0874,7.91ZM22.173,9.0137l0,.0014Z" transform="translate(0 -0.1774)" style="fill:#272424"/><path d="M7.4882,21.6333a.47.47,0,0,1-.3052-.1122,5.7492,5.7492,0,0,1-.7419-.8989,5.243,5.243,0,0,0-.7659-.9173,7.9712,7.9712,0,0,0-1.8994-.0925,9.3592,9.3592,0,0,1-2.0784-.101.4718.4718,0,0,1,.2365-.9134,9.5573,9.5573,0,0,0,1.8283.071,6.714,6.714,0,0,1,2.2836.1681c.3467.1466.6682.5614,1.1563,1.2272a5.9078,5.9078,0,0,0,.5918.7377.4718.4718,0,0,1-.3057.8313Z" transform="translate(0 -0.1774)" style="fill:#272424"/><path d="M6.9375,29.2124a.4834.4834,0,0,1-.0493-.0026,4.1976,4.1976,0,0,1-3.9349-3.053,4.8989,4.8989,0,0,1-.1-1.02c-.0052-.1458-.0127-.352-.0239-.4631a5.28,5.28,0,0,0-.46-.3124,3.8807,3.8807,0,0,1-.6916-.504A4.0168,4.0168,0,0,1,.5963,21.3837a3.5149,3.5149,0,0,1,.8131-2.577l.04-.0495a.4718.4718,0,0,1,.7323.595l-.045.0555-.01.0123a2.9,2.9,0,0,0,.23,3.7825,3.75,3.75,0,0,0,.516.3611,2.3105,2.3105,0,0,1,.7972.6532,1.9892,1.9892,0,0,1,.1263.8861,5.2111,5.2111,0,0,0,.0627.789,3.2783,3.2783,0,0,0,3.1268,2.3794.4718.4718,0,0,1-.0482.9411ZM2.8667,24.71Z" transform="translate(0 -0.1774)" style="fill:#272424"/><path d="M24.5906,21.5683a.4717.4717,0,0,1-.3266-.8122,5.1165,5.1165,0,0,0,.5541-.7091,4.9261,4.9261,0,0,1,.7552-.9206c.4673-.3995,1.3735-.3919,2.6027-.3373A8.48,8.48,0,0,0,29.2,18.8a2.238,2.238,0,0,0,.4915-.1411c.1165-.0426.2368-.0866.3647-.1227a.4718.4718,0,1,1,.2563.9081c-.0937.0264-.1925.0625-.2971.1008a3.01,3.01,0,0,1-.714.193,8.6593,8.6593,0,0,1-1.1668-.0066c-.44-.02-.8951-.04-1.2855-.0187-.5378.0291-.6575.1264-.6623.13a4.356,4.356,0,0,0-.5946.7434,5.72,5.72,0,0,1-.6748.85A.47.47,0,0,1,24.5906,21.5683Z" transform="translate(0 -0.1774)" style="fill:#272424"/><path d="M25.0717,29.212a.4718.4718,0,0,1-.06-.94c1.7676-.2274,2.7352-.9605,3.1372-2.377a5.3153,5.3153,0,0,0,.0644-.8009,1.9753,1.9753,0,0,1,.126-.8785,2.3446,2.3446,0,0,1,.8-.6551,3.8859,3.8859,0,0,0,.5152-.3607,2.8978,2.8978,0,0,0,.2137-3.8442l-.0175-.0223-.0463-.0626a.4718.4718,0,1,1,.7589-.5607l.0381.0516a3.85,3.85,0,0,1-.272,5.0975,4.0031,4.0031,0,0,1-.6848.4983,5.4469,5.4469,0,0,0-.4644.3158c-.0108.1083-.0181.3044-.0237.4558a5.06,5.06,0,0,1-.1,1.024,3.9153,3.9153,0,0,1-1.4857,2.1974,5.2813,5.2813,0,0,1-2.4387.8575A.4809.4809,0,0,1,25.0717,29.212Z" transform="translate(0 -0.1774)" style="fill:#272424"/><path d="M8.1664,15.4319a1.7141,1.7141,0,0,1-1.2385-.5144,2.031,2.031,0,0,1-.4828-1.9848,1.7687,1.7687,0,0,1,1.4231-1.2162,1.9233,1.9233,0,0,1,1.59.4677,2.3966,2.3966,0,0,1,.8,1.2375.5631.5631,0,0,1,.0685.2483l0,.0013a.549.549,0,0,1-.11.3483,3.1507,3.1507,0,0,1-1.4529,1.3212A2.0732,2.0732,0,0,1,8.1664,15.4319Zm.01-2.6652a.5936.5936,0,0,0-.1091.01.6961.6961,0,0,0-.5925.4771.9515.9515,0,0,0,.22.9046.7078.7078,0,0,0,.7583.1495A2.5777,2.5777,0,0,0,9.2,13.639,1.25,1.25,0,0,0,8.1765,12.7667ZM9.3509,14h0Zm.93-.4716,0,.0017Z" transform="translate(0 -0.1774)" style="fill:#272424"/><path d="M23.7339,15.4305a1.8451,1.8451,0,0,1-1.157-.4052,3.3323,3.3323,0,0,1-.4792-.5745c-.4-.5253-.425-.5938-.4451-.731l0-.0007c-.0293-.2017-.0011-.543.58-1.1752a3.1037,3.1037,0,0,1,.96-.7488l.0036-.0016a.8634.8634,0,0,1,.1027-.0386,1.8787,1.8787,0,0,1,2.19,2.5728,1.9529,1.9529,0,0,1-1.3342,1.0558A1.9172,1.9172,0,0,1,23.7339,15.4305Zm-.4588-1.2289a.78.78,0,0,0,.6426.13.88.88,0,0,0,.601-.4753.8053.8053,0,0,0-.894-1.0721c-.0174.0075-.0349.0148-.0526.0213a3.0087,3.0087,0,0,0-.7874.7635C22.94,13.7805,23.19,14.1041,23.2751,14.2016Zm.0148.0166Zm-.04-.0357.0011.0009Zm-.536-.4874Zm.8943-.9068-.0006,0Z" transform="translate(0 -0.1774)" style="fill:#272424"/><path d="M15.9433,18.938c-.3305,0-1.2842-.0079-2.2143-.0254a8.3543,8.3543,0,0,1-2.1858-.1245,4.098,4.098,0,0,1-1.3887-1.3523,6.8447,6.8447,0,0,0-.526-.6385.4717.4717,0,1,1,.6617-.6725,7.3408,7.3408,0,0,1,.6133.7372,4.254,4.254,0,0,0,.9687,1.04c.4547.0586,3.4436.0949,4.1214.0929,1.2626-.0048,3.7334-.04,4.1415-.0924a4.4679,4.4679,0,0,0,.9946-1.0614,7.3851,7.3851,0,0,1,.664-.786.4718.4718,0,0,1,.6519.6821,6.8773,6.8773,0,0,0-.57.6814A4.2784,4.2784,0,0,1,20.47,18.7864a8.0989,8.0989,0,0,1-2.1979.1254c-1.0241.0184-2.0552.0253-2.2753.0261Z" transform="translate(0 -0.1774)" style="fill:#272424"/><path d="M20.9429,31.8226a6.13,6.13,0,0,1-5.0446-3.082l-.0341-.0542a.4718.4718,0,1,1,.7985-.5026l.0359.057.0035.0057a5.1781,5.1781,0,0,0,4.4673,2.6257,3.59,3.59,0,0,0,3.0649-2.3111,2.1873,2.1873,0,0,0-.2991-1.9931,3.6572,3.6572,0,0,0-2.6515-1.7665.4718.4718,0,1,1,.0281-.9431,4.5862,4.5862,0,0,1,3.4241,2.21,3.0192,3.0192,0,0,1,.3576,2.8822,4.4927,4.4927,0,0,1-3.8668,2.863C21.1323,31.82,21.0375,31.8226,20.9429,31.8226Z" transform="translate(0 -0.1774)" style="fill:#272424"/><path d="M12.4145,26.1528a2.0571,2.0571,0,0,1-1.19-.4052,2.1753,2.1753,0,0,1-.9055-1.3945.479.479,0,0,1-.0455-.2145.4717.4717,0,0,1,.0081-.0792.5022.5022,0,0,1,.0993-.2173,2.7013,2.7013,0,0,1,1.5419-1.4014,1.7962,1.7962,0,0,1,1.772.4908,2.025,2.025,0,0,1,.4617,1.9416,1.7951,1.7951,0,0,1-1.3607,1.236A1.6576,1.6576,0,0,1,12.4145,26.1528Zm-1.1636-1.9469a1.2545,1.2545,0,0,0,.5242.7756,1.0159,1.0159,0,0,0,.8043.2092.8472.8472,0,0,0,.673-.5881,1.0961,1.0961,0,0,0-.2431-1.0225.8475.8475,0,0,0-.8664-.2219A1.8732,1.8732,0,0,0,11.2509,24.2059Z" transform="translate(0 -0.1774)" style="fill:#272424"/></svg>