<svg xmlns="http://www.w3.org/2000/svg" viewBox="0 0 192 47.4677"><path d="M15.78,1.0675a7.1187,7.1187,0,0,1,8.16,5.8478l.1262-.08c1.5152-7.9032,12.85-7.56,14.0663-.0066a2.3729,2.3729,0,0,1,.59.1244c4.6982,1.2018,6.37,5.4184,4.0473,9.5321,4.758,2.4358,6.0058,7.7686,2.5585,11.8883l-.0533.1124.0694.094a5.08,5.08,0,0,1-.3571,6.7146c-.4151.4253-1.651,1.0139-1.8675,1.386-.1256.2153-.0562,1.7945-.216,2.3556-.7579,2.67-2.6978,3.74-5.2963,4.0742a1.1351,1.1351,0,0,1-.6131.024c-2.6691,5.88-9.5231,4.5629-12.5469-.396-.1687-.2764-.259-.6317-.5821-.7926.01-.0311.0174-.0628.0246-.0951-.0072.0317-.015.0634-.0246.0951-1.8178,5.8861-10.2815,7.0358-12.8824,1.1276-.1675.2087-.37.0592-.58.0376-2.5578-.2656-4.5384-1.4823-5.2963-4.0742-.16-.5479-.0873-2.1343-.216-2.3556-.22-.3769-1.4523-.9553-1.8675-1.386a5.061,5.061,0,0,1-.37-6.63l.0676-.0832-.0436-.11A14.853,14.853,0,0,1,.9,24.88c-.87-3.7153,1.2424-6.7308,4.4373-8.4506A6.0013,6.0013,0,0,1,6.6632,8.0549,12.4394,12.4394,0,0,1,9.1684,6.8675c.2327-.1089.4558-.3787.7435-.23a7.2775,7.2775,0,0,1,5.8658-5.5691Z" transform="translate(0 -0.2661)" style="fill:#c3e9f5"/><path d="M29.826,11.1846a2.59,2.59,0,0,1,2.7379,2.0111l.0521.0993-.0539.1022a2.5981,2.5981,0,0,1-2.6816,1.992,2.1351,2.1351,0,0,1-.0551-4.2046Z" transform="translate(0 -0.2661)" style="fill:#faab89"/><path d="M28.91,34.6567a2.4732,2.4732,0,0,1,2.9712,1.7467l.0658.0909-.0419.1077a2.527,2.527,0,0,1-2.48,2.2031,2.1344,2.1344,0,0,1-.5145-4.149Z" transform="translate(0 -0.2661)" style="fill:#faab89"/><path d="M18.0484,34.3492a2.1206,2.1206,0,0,1,.9822,4.1257,2.57,2.57,0,0,1-2.8653-2.15l-.0478-.1046.0747-.0981a3.3735,3.3735,0,0,1,1.8568-1.7731Z" transform="translate(0 -0.2661)" style="fill:#faab89"/><path d="M11.9517,18.3693a2.5732,2.5732,0,0,1,2.6739,2.0674l.0556.0993-.064.0843a3.9025,3.9025,0,0,1-1.7048,1.6157c-2.6739.8058-3.67-3.357-.9607-3.8666Z" transform="translate(0 -0.2661)" style="fill:#f8a9c8"/><path d="M35.18,18.4082c-.0341.01-.067.0281-.1011.0407.2327.137.064,1.08.1011,1.1222.0867.0987,2.2785.0616.91,1.517l1.4153.0508a2.0764,2.0764,0,0,1-3.1345.7687,14.2218,14.2218,0,0,1-1.0916-1.444c-.0652-.448,1.2388-1.81,1.7993-2.0141.0341-.0126.067-.03.1011-.0407Z" transform="translate(0 -0.2661)" style="fill:#f8a9c8"/><path d="M37.5055,21.1383,36.09,21.0875c1.3681-1.4548-.8231-1.4177-.91-1.517-.0371-.0425.1316-.9852-.1011-1.1222.0341-.0126.067-.03.1011-.0407a2.0105,2.0105,0,0,1,2.3257,2.73Z" transform="translate(0 -0.2661)" style="fill:#f28eb7"/><path d="M17.0177,11.2c3.6555-1.2687,3.67,5.285.01,4.033a3.9855,3.9855,0,0,1-1.7605-1.9669c-.058-.4917,1.1761-1.8669,1.7509-2.0661Z" transform="translate(0 -0.2661)" style="fill:#faab89"/><path d="M17.9151,16.101a3.4574,3.4574,0,0,1-1.1168-.1984,4.4676,4.4676,0,0,1-2.2343-2.5539c-.02-.165-.0788-.6683.8064-1.6889a4.1453,4.1453,0,0,1,1.4156-1.1283,2.57,2.57,0,0,1,3.098.7843,3.3549,3.3549,0,0,1,.0085,3.7887A2.37,2.37,0,0,1,17.9151,16.101Zm-1.9264-2.8769a3.93,3.93,0,0,0,1.2679,1.3395,1.2006,1.2006,0,0,0,1.4939-.2952,1.9515,1.9515,0,0,0-.0047-2.1115,1.201,1.201,0,0,0-1.4954-.2885A3.996,3.996,0,0,0,15.9887,13.2241Zm-.0211.0613Zm-.002-.1251Zm1.0521-1.96h0Z" transform="translate(0 -0.2661)" style="fill:#272424"/><path d="M16.9506,47.68a7.2917,7.2917,0,0,1-3.617-.9345,7.1561,7.1561,0,0,1-2.9962-3.3882,4.6491,4.6491,0,0,1,.5972-4.33,7.1772,7.1772,0,0,1,5.1454-3.514.7076.7076,0,0,1,.0749,1.4133A5.7959,5.7959,0,0,0,12.14,39.7694a3.4351,3.4351,0,0,0-.5072,3.0181,5.6555,5.6555,0,0,0,5.6931,3.4667,6.4384,6.4384,0,0,0,5.859-4.497l.1736-34.9256a.7064.7064,0,0,1,.0126-.13,7.677,7.677,0,0,1,2.9446-4.8362,8.2675,8.2675,0,0,1,9.7561.11,7.3419,7.3419,0,0,1,2.7593,4.74,5.6749,5.6749,0,0,1-1.2832,4.2662,7.5514,7.5514,0,0,1-4.8509,3.0152.7077.7077,0,1,1-.162-1.406A6.1906,6.1906,0,0,0,36.42,10.1278a4.2942,4.2942,0,0,0,1.0142-3.1867,6.1673,6.1673,0,0,0-6.2213-5.1974,6.2377,6.2377,0,0,0-6.439,5.1618L24.6,41.8534a.71.71,0,0,1-.0175.1531c-.0085.0372-.02.0872-.0373.1431a7.6974,7.6974,0,0,1-2.8181,3.9657,8.1785,8.1785,0,0,1-4.32,1.5519Q17.1781,47.68,16.9506,47.68Z" transform="translate(0 -0.2661)" style="fill:#272424"/><path d="M2.7237,29.2894a.7077.7077,0,0,1-.6579-.4469l-.03-.0758c-.1879-.3579-.393-.6963-.5915-1.0239A8.9944,8.9944,0,0,1,.2131,25.0409,7.4475,7.4475,0,0,1,.9818,19.555a9.7294,9.7294,0,0,1,3.3848-3.3813,6.9049,6.9049,0,0,1-.7974-4.3024A6.7635,6.7635,0,0,1,6.232,7.495,7.0342,7.0342,0,0,1,8.08,6.5527c.2782-.1079.5409-.21.79-.3267l.0315-.0138.0934-.0383a.7077.7077,0,0,1,.5372,1.3094l-.0778.0319c-.2878.1339-.58.2473-.8627.357a5.8806,5.8806,0,0,0-1.4933.7415A5.3235,5.3235,0,0,0,5.932,16.0421a.7075.7075,0,0,1-.2571,1.01c-3.2693,1.76-4.796,4.6262-4.0838,7.6661a7.6479,7.6479,0,0,0,1.0635,2.2914c.216.3564.4394.725.653,1.1354a.7078.7078,0,0,1,.03.0657l.0437.11a.7082.7082,0,0,1-.6576.9689Z" transform="translate(0 -0.2661)" style="fill:#272424"/><path d="M15.2683,13.9746a.7353.7353,0,0,1-.0766-.0041,7.253,7.253,0,0,1-4.7672-3.0472,5.6664,5.6664,0,0,1-1.2031-4.43A7.9916,7.9916,0,0,1,15.6666.37a7.7546,7.7546,0,0,1,5.8112,1.3635,7.8427,7.8427,0,0,1,3.1594,5.0621,4.8293,4.8293,0,0,1,.0632.6681.7077.7077,0,0,1-1.4145.049,3.46,3.46,0,0,0-.0432-.4751,6.4478,6.4478,0,0,0-7.349-5.2706,6.55,6.55,0,0,0-5.2865,5.0143,4.3514,4.3514,0,0,0,.9613,3.3092,5.8966,5.8966,0,0,0,3.7747,2.4732.7077.7077,0,0,1-.0749,1.4113Z" transform="translate(0 -0.2661)" style="fill:#272424"/><path d="M45.2755,29.1937a.7081.7081,0,0,1-.6391-1.0109L44.69,28.07a.709.709,0,0,1,.0968-.1511,6.9248,6.9248,0,0,0,1.6717-5.8643,7.23,7.23,0,0,0-4.01-4.94.7076.7076,0,0,1-.2938-.9778,5.922,5.922,0,0,0,.5551-5.2781,5.8734,5.8734,0,0,0-4.1615-3.22.7077.7077,0,1,1,.3507-1.3712,7.2489,7.2489,0,0,1,5.1125,4.0363,7.0952,7.0952,0,0,1-.2964,5.8968,8.588,8.588,0,0,1,4.13,5.5727,8.2914,8.2914,0,0,1-1.9144,6.9835l-.0153.0322A.7076.7076,0,0,1,45.2755,29.1937Z" transform="translate(0 -0.2661)" style="fill:#272424"/><path d="M14.6812,21.2442a.7077.7077,0,0,1-.0028-1.4153l18.5982-.0742h.0028a.7077.7077,0,0,1,.0028,1.4153l-18.5982.0742Z" transform="translate(0 -0.2661)" style="fill:#272424"/><path d="M29.5478,39.5184c-.0586,0-.1169-.0021-.1754-.0063a2.842,2.842,0,0,1-.6847-5.5268,2.9377,2.9377,0,0,1,2.3672.3012,3.1525,3.1525,0,0,1,1.4771,1.8059.7266.7266,0,0,1,.1184.3294.7089.7089,0,0,1,.0016.1294.762.762,0,0,1-.0559.2356A3.2676,3.2676,0,0,1,29.5478,39.5184Zm-.0418-4.2471a1.1913,1.1913,0,0,0-.3744.0579,1.4267,1.4267,0,0,0,.344,2.7713,1.8236,1.8236,0,0,0,1.72-1.52L31.19,36.56l-.0017-.008a1.7006,1.7006,0,0,0-.8382-1.0375A1.7191,1.7191,0,0,0,29.506,35.2713Zm1.9219,1.694h0Z" transform="translate(0 -0.2661)" style="fill:#272424"/><path d="M30.1465,16.1163a2.4456,2.4456,0,0,1-.374-.0284,2.7629,2.7629,0,0,1-2.39-2.77,2.762,2.762,0,0,1,2.3172-2.83,3.0066,3.0066,0,0,1,2.2633.6005,3.1877,3.1877,0,0,1,1.2778,1.866.7724.7724,0,0,1,.0594.156.71.71,0,0,1,.0234.15.731.731,0,0,1-.09.3885A3.2559,3.2559,0,0,1,32.02,15.4384,3.1227,3.1227,0,0,1,30.1465,16.1163Zm-.0154-4.2515a1.0014,1.0014,0,0,0-.1788.0155,1.4274,1.4274,0,0,0,.0373,2.809,1.8947,1.8947,0,0,0,1.8731-1.399l-.0008-.006a1.7244,1.7244,0,0,0-.7319-1.0517A1.7673,1.7673,0,0,0,30.1311,11.8648ZM33.26,13.5206l0,.002Z" transform="translate(0 -0.2661)" style="fill:#272424"/><path d="M11.2323,32.45a.7048.7048,0,0,1-.4578-.1684,8.6185,8.6185,0,0,1-1.1128-1.3483,7.8587,7.8587,0,0,0-1.1489-1.376,11.9656,11.9656,0,0,0-2.8491-.1387,14.0477,14.0477,0,0,1-3.1175-.1514.7076.7076,0,1,1,.3547-1.37,14.33,14.33,0,0,0,2.7424.1063,10.0764,10.0764,0,0,1,3.4254.2523c.52.22,1.0022.8421,1.7344,1.8408a8.8764,8.8764,0,0,0,.8877,1.1065.7077.7077,0,0,1-.4585,1.247Z" transform="translate(0 -0.2661)" style="fill:#272424"/><path d="M10.4062,43.8186a.7093.7093,0,0,1-.0739-.0039c-3.0789-.32-5.12-1.9032-5.9024-4.58a7.3422,7.3422,0,0,1-.15-1.53c-.0079-.2188-.019-.528-.0359-.6947a7.8862,7.8862,0,0,0-.6907-.4685,5.8367,5.8367,0,0,1-1.0373-.7561,6.0258,6.0258,0,0,1-1.6217-3.71A5.2732,5.2732,0,0,1,2.114,28.21l.06-.0742a.7077.7077,0,1,1,1.0985.8925l-.0676.0831L3.19,29.13a4.35,4.35,0,0,0,.3454,5.6738,5.6338,5.6338,0,0,0,.7741.5416,3.4678,3.4678,0,0,1,1.1958.98,2.9856,2.9856,0,0,1,.1895,1.3291,7.8146,7.8146,0,0,0,.0939,1.1836c.6167,2.1092,2.1947,3.31,4.69,3.5691a.7077.7077,0,0,1-.0723,1.4116ZM4.3,37.0647v0Z" transform="translate(0 -0.2661)" style="fill:#272424"/><path d="M36.8859,32.3525a.7077.7077,0,0,1-.49-1.2184,7.6656,7.6656,0,0,0,.8311-1.0637A7.3954,7.3954,0,0,1,38.36,28.69c.701-.5994,2.06-.5879,3.9041-.506A12.7067,12.7067,0,0,0,43.8,28.2a3.3536,3.3536,0,0,0,.7372-.2116c.1746-.0639.3552-.13.547-.184a.7077.7077,0,1,1,.3844,1.3621c-.1405.04-.2887.0938-.4455.1511a4.5083,4.5083,0,0,1-1.0711.29,12.9763,12.9763,0,0,1-1.75-.01c-.66-.0292-1.3425-.06-1.9282-.0279-.8067.0436-.9862.19-.9934.1958a6.5237,6.5237,0,0,0-.8919,1.1151,8.5968,8.5968,0,0,1-1.0121,1.275A.7054.7054,0,0,1,36.8859,32.3525Z" transform="translate(0 -0.2661)" style="fill:#272424"/><path d="M37.6075,43.8179a.7077.7077,0,0,1-.0894-1.41c2.6515-.3411,4.1028-1.4408,4.7059-3.5655a7.993,7.993,0,0,0,.0966-1.2014,2.964,2.964,0,0,1,.1889-1.3177,3.5164,3.5164,0,0,1,1.2-.9826,5.8353,5.8353,0,0,0,.7728-.541,4.3469,4.3469,0,0,0,.3206-5.7664L44.7762,29l-.0694-.094a.7076.7076,0,1,1,1.1383-.8409l.0572.0774a5.7756,5.7756,0,0,1-.408,7.6462,6.0025,6.0025,0,0,1-1.0272.7473,8.1567,8.1567,0,0,0-.6967.4738c-.0162.1624-.0271.4566-.0355.6836a7.5845,7.5845,0,0,1-.15,1.536,5.8739,5.8739,0,0,1-2.2286,3.2962,7.9233,7.9233,0,0,1-3.6581,1.2862A.7218.7218,0,0,1,37.6075,43.8179Z" transform="translate(0 -0.2661)" style="fill:#272424"/><path d="M12.25,23.1478a2.5706,2.5706,0,0,1-1.8578-.7716,3.0463,3.0463,0,0,1-.7243-2.9771,2.6529,2.6529,0,0,1,2.1347-1.8243,2.8844,2.8844,0,0,1,2.3852.7016,3.5943,3.5943,0,0,1,1.1994,1.8562.8432.8432,0,0,1,.1027.3724l0,.002a.8226.8226,0,0,1-.1646.5224,4.7269,4.7269,0,0,1-2.1793,1.9819A3.1083,3.1083,0,0,1,12.25,23.1478Zm.015-3.9977a.8782.8782,0,0,0-.1636.015,1.0441,1.0441,0,0,0-.8888.7157,1.4273,1.4273,0,0,0,.3294,1.3569,1.0617,1.0617,0,0,0,1.1374.2242,3.8647,3.8647,0,0,0,1.12-1.0034A1.8745,1.8745,0,0,0,12.2647,19.15Zm1.7617,1.8491h0Zm1.3951-.7074,0,.0027Z" transform="translate(0 -0.2661)" style="fill:#272424"/><path d="M35.6009,23.1458a2.7672,2.7672,0,0,1-1.7356-.6079,5.0024,5.0024,0,0,1-.7188-.8617c-.5993-.7879-.6375-.8907-.6676-1.0965l0-.001c-.0439-.3026-.0016-.8146.87-1.7628a4.6541,4.6541,0,0,1,1.4406-1.1232l.0054-.0024a1.2611,1.2611,0,0,1,.154-.058,2.818,2.818,0,0,1,3.2843,3.8592,2.9294,2.9294,0,0,1-2.0013,1.5838A2.8772,2.8772,0,0,1,35.6009,23.1458Zm-.6883-1.8433a1.1708,1.1708,0,0,0,.964.1941,1.3186,1.3186,0,0,0,.9014-.7129,1.2079,1.2079,0,0,0-1.341-1.6082c-.026.0114-.0523.0223-.0788.032a4.5105,4.5105,0,0,0-1.1811,1.1452C34.41,20.6708,34.7854,21.1562,34.9126,21.3025Zm.0222.0248h0Zm-.06-.0536.0017.0013Zm-.8039-.731Zm1.3414-1.36-.0009,0Z" transform="translate(0 -0.2661)" style="fill:#272424"/><path d="M23.9149,28.407c-.4957,0-1.9262-.0119-3.3214-.0382-2.9639-.0558-3.1168-.1194-3.2787-.1867a6.1462,6.1462,0,0,1-2.083-2.0284,10.2276,10.2276,0,0,0-.7891-.9577.7077.7077,0,0,1,.9926-1.0089,11.0359,11.0359,0,0,1,.92,1.1059,6.3787,6.3787,0,0,0,1.453,1.5592c.6821.0879,5.1654.1424,6.1821.1394,1.8939-.0072,5.6-.0606,6.2123-.1386a6.7017,6.7017,0,0,0,1.4918-1.5921,11.09,11.09,0,0,1,.9961-1.1791.7077.7077,0,0,1,.9778,1.0233,10.3091,10.3091,0,0,0-.8547,1.0221A6.4181,6.4181,0,0,1,30.7055,28.18c-.1695.0723-.3157.1346-3.2968.1881-1.5361.0276-3.0828.0379-3.4129.0392Z" transform="translate(0 -0.2661)" style="fill:#272424"/><path d="M31.4144,47.7339a9.1948,9.1948,0,0,1-7.567-4.623l-.0512-.0813a.7077.7077,0,0,1,1.1978-.7539l.0538.0855.0054.0085a7.7669,7.7669,0,0,0,6.7008,3.9386,5.385,5.385,0,0,0,4.5975-3.4666,3.281,3.281,0,0,0-.4487-2.99,5.4856,5.4856,0,0,0-3.9773-2.65.7077.7077,0,0,1,.0422-1.4148,6.88,6.88,0,0,1,5.1361,3.3156,4.5291,4.5291,0,0,1,.5365,4.3234,6.7392,6.7392,0,0,1-5.8,4.2945C31.6984,47.73,31.5562,47.7339,31.4144,47.7339Z" transform="translate(0 -0.2661)" style="fill:#272424"/><path d="M18.6217,39.2291a3.0851,3.0851,0,0,1-1.7852-.6077A3.2623,3.2623,0,0,1,15.4783,36.53a.7173.7173,0,0,1-.0683-.3218.7028.7028,0,0,1,.0121-.1188.7524.7524,0,0,1,.149-.326,4.051,4.051,0,0,1,2.3128-2.102,2.6937,2.6937,0,0,1,2.6579.7362,3.0373,3.0373,0,0,1,.6927,2.9123,2.6929,2.6929,0,0,1-2.041,1.8541A2.49,2.49,0,0,1,18.6217,39.2291Zm-1.7454-2.92a1.882,1.882,0,0,0,.7864,1.1635,1.5238,1.5238,0,0,0,1.2064.3138,1.2707,1.2707,0,0,0,1.0095-.8822,1.6436,1.6436,0,0,0-.3647-1.5337,1.2713,1.2713,0,0,0-1.3-.3329A2.8105,2.8105,0,0,0,16.8763,36.3088Z" transform="translate(0 -0.2661)" style="fill:#272424"/><path d="M60.2547,30.7218a4.2685,4.2685,0,0,0,4.1279,2.5918,3.533,3.533,0,0,0,3.6158-2.7842c1.0561-5.6308-11.3911-8.0307-9.7593-15.87.64-3.104,3.36-4.8638,7.1035-4.8638,3.9038,0,6.72,1.8238,7.4873,4.96.32,1.28-.4477,1.9839-1.6636,2.0479h-.16c-1.1519.0644-1.6-.5118-2.08-1.6319a3.3322,3.3322,0,0,0-3.3276-1.8554c-1.8238,0-3.0078.8637-3.2315,2.0795-.832,5.3438,10.9751,7.68,9.919,15.4546-.544,3.6475-3.7115,5.9522-7.9356,5.9522-4.0957,0-7.103-2.08-8.0312-5.5684-.3521-1.2793.416-2.0478,1.6958-2.1113h.0639C59.2313,29.0577,59.7752,29.6339,60.2547,30.7218Z" transform="translate(0 -0.2661)" style="fill:#1976d2"/><path d="M73.3753,41.0577c.0957-1.0244.64-1.4726,1.5357-1.3447a10.7983,10.7983,0,0,0,1.44.0967,3.1834,3.1834,0,0,0,3.2959-2.56L74.9432,18.5949c-.32-1.3121.2241-2.1436,1.4717-2.1436h.2881a1.9234,1.9234,0,0,1,2.08,1.6958l2.24,10.5269c.2881,1.248.5117,2.5283.7036,3.84.3843-1.3115.7681-2.5918,1.12-3.84l2.9756-10.5909a2.0168,2.0168,0,0,1,2.144-1.6318h.0323c1.3755,0,2.0156.8315,1.6,2.1758L84.19,35.4572c-1.8238,5.5683-3.04,7.7441-7.2315,7.7441a13.6674,13.6674,0,0,1-1.9516-.1279A1.7444,1.7444,0,0,1,73.3753,41.0577Z" transform="translate(0 -0.2661)" style="fill:#1976d2"/><path d="M93.8866,36.4816h-.0645a1.721,1.721,0,0,1-1.8877-1.9844l.9277-16.19a1.7327,1.7327,0,0,1,1.92-1.8555c1.1523,0,1.8242.3838,1.8242,1.0239v1.024a5.1047,5.1047,0,0,1,4.3515-2.3682c2.8164,0,5.3438,1.5361,5.0879,6.0156l-.6718,12.4785a1.7432,1.7432,0,0,1-1.9522,1.8565h-.0635a1.7212,1.7212,0,0,1-1.8886-1.9844l.6718-11.8384c.1289-2.08-.64-3.1357-2.4629-3.1357-1.7919,0-2.88,1.3115-3.2,3.1675l-.64,11.9345A1.7431,1.7431,0,0,1,93.8866,36.4816Z" transform="translate(0 -0.2661)" style="fill:#1976d2"/><path d="M121.6619,36.4816c-1.1845,0-1.8564-.32-1.8564-.9278l-.0313-.9287a5.0761,5.0761,0,0,1-4.0322,2.1768c-3.7431,0-6.72-2.8486-6.3037-10.8154.32-6.6558,3.2-9.8233,7.04-9.8233a4.7337,4.7337,0,0,1,4.0957,2.0479,1.7188,1.7188,0,0,1,1.9511-1.76h.0645a1.72,1.72,0,0,1,1.8877,1.9839l-.8955,16.19A1.7332,1.7332,0,0,1,121.6619,36.4816Zm-5.1835-3.0723c2.0156,0,3.0712-1.76,3.455-3.6475l.3848-7.1352a3.1055,3.1055,0,0,0-3.1357-3.0718c-2.6241,0-3.5518,2.9761-3.7442,6.7832C113.2782,30.4337,113.6619,33.4093,116.4784,33.4093Z" transform="translate(0 -0.2661)" style="fill:#1976d2"/><path d="M129.533,36.4816H129.47a1.72,1.72,0,0,1-1.8877-1.9844l1.3115-23.55a1.7429,1.7429,0,0,1,1.9521-1.856h.0323a1.7209,1.7209,0,0,1,1.8877,1.9839l-1.28,23.55A1.7423,1.7423,0,0,1,129.533,36.4816Z" transform="translate(0 -0.2661)" style="fill:#1976d2"/><path d="M137.4051,36.4816h-.0322a1.72,1.72,0,0,1-1.8877-1.9844l.8642-16.19a1.7415,1.7415,0,0,1,1.9512-1.8555h.0645a1.72,1.72,0,0,1,1.8877,1.9839l-.8955,16.19A1.7432,1.7432,0,0,1,137.4051,36.4816Zm1.4717-26.814a2.3436,2.3436,0,0,1,2.3037,2.752c-.0957,1.5356-.8633,2.7514-2.56,2.7514A2.3644,2.3644,0,0,1,136.285,12.42C136.4129,10.9157,137.1815,9.6676,138.8768,9.6676Z" transform="translate(0 -0.2661)" style="fill:#1976d2"/><path d="M154.9715,36.4816h-.48a2.2909,2.2909,0,0,1-2.2715-1.4082l-2.624-5.3438-2.9443,5.4082a2.3114,2.3114,0,0,1-2.2715,1.3438c-1.4717,0-2.0156-.96-1.2481-2.3037l4.5118-7.8077-4.0313-7.6474c-.7041-1.3115-.32-2.2715.8311-2.2715h.416a2.2923,2.2923,0,0,1,2.2724,1.4077l2.6875,5.4077,3.0723-5.4717a2.3605,2.3605,0,0,1,2.2715-1.3437c1.4717,0,1.9521.9917,1.1836,2.3037L151.7723,26.53l4.0312,7.6787C156.5076,35.5216,156.1561,36.4816,154.9715,36.4816Z" transform="translate(0 -0.2661)" style="fill:#1976d2"/><path d="M165.2762,34.2736l7.7441-22.59a2.0846,2.0846,0,0,1,2.2071-1.5678h.7685a1.99,1.99,0,0,1,2.1114,1.6323l5.92,22.59c.3515,1.3438-.2559,2.1436-1.5362,2.1436h-.416a1.995,1.995,0,0,1-2.1113-1.6641L178.3,28.1945h-6.88l-2.0791,6.6875a2.02,2.02,0,0,1-2.1446,1.6h-.48C165.4041,36.4816,164.8289,35.5851,165.2762,34.2736Zm12.127-9.6309-.8633-3.3921a58.4073,58.4073,0,0,1-1.28-6.08c-.3516,1.76-1.1836,4.3838-1.6,5.76l-1.1524,3.7119Z" transform="translate(0 -0.2661)" style="fill:#1976d2"/><path d="M188.8924,36.4816h-.16a1.72,1.72,0,0,1-1.8877-1.9844l1.1513-22.5259a1.743,1.743,0,0,1,1.9522-1.8559h.16a1.72,1.72,0,0,1,1.8877,1.9838l-1.1513,22.5259A1.7432,1.7432,0,0,1,188.8924,36.4816Z" transform="translate(0 -0.2661)" style="fill:#1976d2"/></svg>